<svg width="50" height="50" viewBox="0 0 50 50" fill="none" xmlns="http://www.w3.org/2000/svg">
<g clip-path="url(#clip0_452_453)">
<path d="M45.3124 24.9999C45.306 29.9643 43.4846 34.7551 40.1911 38.4699C36.8976 42.1846 32.3595 44.5668 27.4315 45.1678C27.3218 45.1803 27.2107 45.1693 27.1055 45.1356C27.0003 45.102 26.9035 45.0464 26.8214 44.9726C26.7392 44.8987 26.6737 44.8083 26.6291 44.7073C26.5844 44.6063 26.5617 44.497 26.5624 44.3866V29.6874H31.2499C31.4641 29.6878 31.6761 29.6443 31.8728 29.5593C32.0694 29.4744 32.2465 29.35 32.393 29.1937C32.5396 29.0375 32.6524 28.8528 32.7246 28.6511C32.7967 28.4494 32.8266 28.2351 32.8124 28.0213C32.7779 27.6196 32.5925 27.2457 32.2936 26.9751C31.9947 26.7044 31.6043 26.5569 31.2011 26.5624H26.5624V21.8749C26.5624 21.0461 26.8916 20.2512 27.4777 19.6652C28.0638 19.0791 28.8586 18.7499 29.6874 18.7499H32.8124C33.0266 18.7503 33.2386 18.7068 33.4353 18.6218C33.6319 18.5369 33.809 18.4125 33.9555 18.2562C34.1021 18.1 34.2149 17.9153 34.2871 17.7136C34.3592 17.5119 34.3891 17.2976 34.3749 17.0838C34.3403 16.6814 34.1544 16.307 33.8547 16.0362C33.5549 15.7654 33.1636 15.6184 32.7597 15.6249H29.6874C28.0298 15.6249 26.4401 16.2833 25.268 17.4554C24.0959 18.6275 23.4374 20.2173 23.4374 21.8749V26.5624H18.7499C18.5357 26.5619 18.3237 26.6055 18.1271 26.6904C17.9304 26.7753 17.7533 26.8997 17.6068 27.056C17.4603 27.2122 17.3474 27.3969 17.2753 27.5986C17.2031 27.8003 17.1732 28.0146 17.1874 28.2284C17.222 28.6309 17.4079 29.0052 17.7077 29.276C18.0074 29.5468 18.3987 29.6938 18.8026 29.6874H23.4374V44.3905C23.4381 44.5007 23.4154 44.6099 23.3709 44.7107C23.3264 44.8116 23.261 44.9019 23.1791 44.9757C23.0972 45.0495 23.0006 45.1051 22.8956 45.1389C22.7907 45.1727 22.6798 45.1839 22.5702 45.1717C17.5104 44.5555 12.8662 42.0622 9.55709 38.1851C6.24793 34.3081 4.51492 29.33 4.70108 24.2362C5.09171 13.6893 13.6347 5.11509 24.1894 4.70494C26.922 4.59909 29.6478 5.04547 32.2039 6.01737C34.7601 6.98927 37.0939 8.46673 39.0658 10.3614C41.0378 12.256 42.6074 14.5289 43.6807 17.0441C44.754 19.5594 45.3089 22.2652 45.3124 24.9999Z" fill="url(#paint0_linear_452_453)"/>
</g>
<defs>
<linearGradient id="paint0_linear_452_453" x1="4.6875" y1="24.9331" x2="45.3124" y2="24.9331" gradientUnits="userSpaceOnUse">
<stop stop-color="#26A81D"/>
<stop offset="1" stop-color="#6EC568"/>
</linearGradient>
<clipPath id="clip0_452_453">
<rect width="50" height="50" fill="white"/>
</clipPath>
</defs>
</svg>
