<svg width="48" height="48" viewBox="0 0 48 48" fill="none" xmlns="http://www.w3.org/2000/svg">
<g clip-path="url(#clip0_452_456)">
<path d="M40.4995 4.5H7.49951C6.70386 4.5 5.9408 4.81607 5.37819 5.37868C4.81558 5.94129 4.49951 6.70435 4.49951 7.5V40.5C4.49951 41.2956 4.81558 42.0587 5.37819 42.6213C5.9408 43.1839 6.70386 43.5 7.49951 43.5H40.4995C41.2952 43.5 42.0582 43.1839 42.6208 42.6213C43.1834 42.0587 43.4995 41.2956 43.4995 40.5V7.5C43.4995 6.70435 43.1834 5.94129 42.6208 5.37868C42.0582 4.81607 41.2952 4.5 40.4995 4.5ZM17.9995 33C17.9995 33.3978 17.8415 33.7794 17.5602 34.0607C17.2789 34.342 16.8973 34.5 16.4995 34.5C16.1017 34.5 15.7202 34.342 15.4389 34.0607C15.1575 33.7794 14.9995 33.3978 14.9995 33V21C14.9995 20.6022 15.1575 20.2206 15.4389 19.9393C15.7202 19.658 16.1017 19.5 16.4995 19.5C16.8973 19.5 17.2789 19.658 17.5602 19.9393C17.8415 20.2206 17.9995 20.6022 17.9995 21V33ZM16.4995 18C16.0545 18 15.6195 17.868 15.2495 17.6208C14.8795 17.3736 14.5911 17.0222 14.4208 16.611C14.2505 16.1999 14.2059 15.7475 14.2927 15.311C14.3796 14.8746 14.5939 14.4737 14.9085 14.159C15.2232 13.8443 15.6241 13.63 16.0606 13.5432C16.497 13.4564 16.9494 13.501 17.3605 13.6713C17.7717 13.8416 18.1231 14.13 18.3703 14.5C18.6176 14.87 18.7495 15.305 18.7495 15.75C18.7495 16.3467 18.5125 16.919 18.0905 17.341C17.6685 17.7629 17.0962 18 16.4995 18ZM34.4995 33C34.4995 33.3978 34.3415 33.7794 34.0602 34.0607C33.7789 34.342 33.3973 34.5 32.9995 34.5C32.6017 34.5 32.2202 34.342 31.9388 34.0607C31.6575 33.7794 31.4995 33.3978 31.4995 33V26.25C31.4995 25.2554 31.1044 24.3016 30.4012 23.5983C29.6979 22.8951 28.7441 22.5 27.7495 22.5C26.7549 22.5 25.8011 22.8951 25.0979 23.5983C24.3946 24.3016 23.9995 25.2554 23.9995 26.25V33C23.9995 33.3978 23.8415 33.7794 23.5602 34.0607C23.2789 34.342 22.8973 34.5 22.4995 34.5C22.1017 34.5 21.7202 34.342 21.4389 34.0607C21.1575 33.7794 20.9995 33.3978 20.9995 33V21C21.0014 20.6326 21.138 20.2786 21.3835 20.0053C21.6291 19.7319 21.9664 19.5582 22.3315 19.517C22.6966 19.4759 23.0641 19.5702 23.3643 19.782C23.6645 19.9938 23.8765 20.3085 23.9601 20.6662C24.9749 19.9779 26.1579 19.5789 27.3823 19.5122C28.6066 19.4455 29.826 19.7136 30.9096 20.2876C31.9931 20.8617 32.8997 21.72 33.5322 22.7705C34.1647 23.8209 34.4991 25.0238 34.4995 26.25V33Z" fill="url(#paint0_linear_452_456)"/>
</g>
<defs>
<linearGradient id="paint0_linear_452_456" x1="4.49951" y1="24" x2="43.4995" y2="24" gradientUnits="userSpaceOnUse">
<stop stop-color="#26A81D"/>
<stop offset="1" stop-color="#6EC568"/>
</linearGradient>
<clipPath id="clip0_452_456">
<rect width="48" height="48" fill="white"/>
</clipPath>
</defs>
</svg>
