<svg width="26" height="34" viewBox="0 0 26 34" fill="none" xmlns="http://www.w3.org/2000/svg">
<path d="M24.5769 13.5385C24.5769 23.9231 13.0385 32 13.0385 32C13.0385 32 1.5 23.9231 1.5 13.5385C1.5 10.4783 2.71566 7.54342 4.87954 5.37954C7.04342 3.21566 9.97827 2 13.0385 2C16.0987 2 19.0335 3.21566 21.1974 5.37954C23.3613 7.54342 24.5769 10.4783 24.5769 13.5385Z" stroke="white" stroke-width="2.08206" stroke-linecap="round" stroke-linejoin="round"/>
<path d="M11.8807 17.9886C14.3385 18.6644 16.8788 17.2199 17.5546 14.7621C18.2305 12.3043 16.7859 9.76404 14.3281 9.08821C11.8704 8.41237 9.33006 9.85693 8.65423 12.3147C7.97839 14.7725 9.42295 17.3128 11.8807 17.9886Z" stroke="white" stroke-width="2.08206" stroke-linecap="round" stroke-linejoin="round"/>
</svg>
