<svg width="41" height="40" viewBox="0 0 41 40" fill="none" xmlns="http://www.w3.org/2000/svg">
<path d="M31.9641 23.2385L25.8097 20.1615C25.5674 20.0408 25.2976 19.9862 25.0274 20.003C24.7573 20.0199 24.4964 20.1078 24.2711 20.2577L21.4458 22.1423C20.1488 21.4294 19.0815 20.3622 18.3686 19.0654L20.2534 16.2404C20.4033 16.0151 20.4912 15.7542 20.508 15.4841C20.5249 15.2139 20.4702 14.9442 20.3495 14.7019L17.2723 8.54808C17.1448 8.29052 16.9476 8.07384 16.7032 7.92259C16.4588 7.77134 16.1769 7.69156 15.8895 7.69231C13.8492 7.69231 11.8924 8.50275 10.4497 9.94533C9.00695 11.3879 8.19644 13.3445 8.19644 15.3846C8.20153 19.8713 9.98629 24.1728 13.1592 27.3454C16.3321 30.518 20.634 32.3026 25.1211 32.3077C26.1314 32.3077 27.1318 32.1087 28.0651 31.7222C28.9985 31.3356 29.8466 30.769 30.5609 30.0547C31.2753 29.3404 31.842 28.4924 32.2286 27.5591C32.6152 26.6258 32.8142 25.6256 32.8142 24.6154C32.8144 24.3296 32.735 24.0494 32.5848 23.8061C32.4347 23.5629 32.2197 23.3664 31.9641 23.2385ZM25.1211 29.2308C21.4498 29.2267 17.93 27.7666 15.334 25.1708C12.738 22.5751 11.2777 19.0556 11.2737 15.3846C11.2734 14.3175 11.6428 13.2833 12.3193 12.458C12.9957 11.6326 13.9372 11.0671 14.9836 10.8577L17.1915 15.2808L15.3125 18.0769C15.1721 18.2875 15.0858 18.5295 15.0613 18.7814C15.0368 19.0334 15.0749 19.2875 15.1721 19.5212C16.2729 22.1373 18.3544 24.2185 20.9707 25.3192C21.2052 25.4208 21.4612 25.4623 21.7157 25.4402C21.9702 25.418 22.2152 25.3328 22.4286 25.1923L25.2385 23.3192L29.662 25.5269C29.4509 26.5745 28.8829 27.5163 28.0548 28.1918C27.2267 28.8672 26.1898 29.2345 25.1211 29.2308ZM20.5053 4.76299e-07C17.052 -0.000753002 13.6574 0.892477 10.6518 2.59275C7.64617 4.29302 5.132 6.74241 3.35399 9.7025C1.57599 12.6626 0.594709 16.0325 0.505674 19.4843C0.416639 22.9361 1.22288 26.3522 2.84592 29.4L0.66302 35.9481C0.482204 36.4902 0.455963 37.072 0.587239 37.6282C0.718515 38.1844 1.00212 38.6931 1.40627 39.0972C1.81041 39.5013 2.31913 39.7849 2.8754 39.9162C3.43167 40.0474 4.01351 40.0212 4.5557 39.8404L11.1044 37.6577C13.7869 39.0843 16.7592 39.8812 19.7957 39.9877C22.8321 40.0942 25.853 39.5077 28.6289 38.2726C31.4048 37.0374 33.8628 35.1862 35.8164 32.8594C37.77 30.5326 39.1677 27.7913 39.9036 24.8437C40.6394 21.8961 40.694 18.8196 40.0632 15.8478C39.4324 12.8759 38.1328 10.0868 36.263 7.69215C34.3933 5.29749 32.0025 3.36023 29.2721 2.02741C26.5418 0.694593 23.5436 0.0012466 20.5053 4.76299e-07ZM20.5053 36.9231C17.53 36.9251 14.6069 36.1417 12.0314 34.6519C11.8429 34.5426 11.6332 34.4746 11.4164 34.4523C11.1995 34.4301 10.9804 34.4542 10.7736 34.5231L3.58061 36.9231L5.97892 29.7308C6.04805 29.5241 6.07248 29.3051 6.0506 29.0883C6.02872 28.8715 5.96102 28.6618 5.85198 28.4731C3.98636 25.2479 3.23732 21.4973 3.72106 17.803C4.2048 14.1087 5.89428 10.6773 8.5274 8.04114C11.1605 5.40494 14.5901 3.71129 18.2841 3.22293C21.9781 2.73457 25.7301 3.4788 28.9579 5.34016C32.1857 7.20153 34.709 10.076 36.1363 13.5176C37.5636 16.9592 37.8152 20.7756 36.8519 24.3748C35.8887 27.9739 33.7645 31.1546 30.8089 33.4235C27.8533 35.6923 24.2315 36.9225 20.5053 36.9231Z" fill="#FAFAFA"/>
</svg>
