<svg width="48" height="48" viewBox="0 0 48 48" fill="none" xmlns="http://www.w3.org/2000/svg">
<g clip-path="url(#clip0_452_462)">
<path d="M40.3123 41.2219C40.1831 41.4571 39.9932 41.6534 39.7623 41.7903C39.5315 41.9272 39.2681 41.9996 38.9998 42H29.9998C29.7473 41.9999 29.499 41.9361 29.2777 41.8145C29.0565 41.6929 28.8695 41.5175 28.7341 41.3044L21.1423 29.3737L10.1098 41.5087C9.84081 41.7976 9.46883 41.9689 9.07447 41.9854C8.6801 42.0019 8.29513 41.8622 8.00303 41.5968C7.71092 41.3313 7.53522 40.9614 7.51401 40.5673C7.49281 40.1731 7.62781 39.7865 7.88975 39.4912L19.4716 26.7412L7.73413 8.30625C7.58957 8.07946 7.50864 7.81797 7.49983 7.54916C7.49101 7.28036 7.55463 7.01413 7.68402 6.77835C7.81341 6.54258 8.00382 6.34592 8.23529 6.20899C8.46677 6.07205 8.73081 5.99987 8.99975 6H17.9998C18.2522 6.00008 18.5006 6.06387 18.7218 6.18547C18.943 6.30707 19.13 6.48254 19.2654 6.69562L26.8573 18.6262L37.8898 6.49125C38.1587 6.20235 38.5307 6.03109 38.925 6.01462C39.3194 5.99814 39.7044 6.13777 39.9965 6.40323C40.2886 6.66869 40.4643 7.03859 40.4855 7.43273C40.5067 7.82687 40.3717 8.21348 40.1098 8.50875L28.5279 21.2494L40.2654 39.6956C40.4091 39.9225 40.4893 40.1839 40.4976 40.4523C40.5058 40.7208 40.4418 40.9866 40.3123 41.2219Z" fill="url(#paint0_linear_452_462)"/>
</g>
<defs>
<linearGradient id="paint0_linear_452_462" x1="7.49902" y1="24" x2="40.4983" y2="24" gradientUnits="userSpaceOnUse">
<stop stop-color="#26A81D"/>
<stop offset="1" stop-color="#6EC568"/>
</linearGradient>
<clipPath id="clip0_452_462">
<rect width="48" height="48" fill="white"/>
</clipPath>
</defs>
</svg>
